<?xml version="1.0" standalone="no"?>
<!DOCTYPE svg PUBLIC "-//W3C//DTD SVG 20010904//EN"
 "http://www.w3.org/TR/2001/REC-SVG-20010904/DTD/svg10.dtd">
<svg version="1.0" xmlns="http://www.w3.org/2000/svg"
 width="204.000000pt" height="204.000000pt" viewBox="0 0 204.000000 204.000000"
 preserveAspectRatio="xMidYMid meet">
<metadata>
Created by potrace 1.14, written by Peter Selinger 2001-2017
</metadata>
<g transform="translate(0.000000,204.000000) scale(0.100000,-0.100000)"
fill="#000000" stroke="none">
<path d="M206 1924 c-3 -9 -10 -13 -15 -10 -5 3 -11 -1 -15 -9 -3 -8 -11 -15
-18 -15 -9 0 -8 3 2 10 8 5 10 10 5 10 -13 0 -40 -30 -59 -69 -14 -25 -16
-130 -16 -821 0 -881 -4 -833 68 -888 l35 -27 827 0 827 0 35 27 c71 54 68 19
68 777 0 420 -4 681 -9 681 -6 0 -8 10 -5 23 3 12 5 64 5 115 1 84 -2 97 -25
133 -50 75 -46 74 -361 75 -157 0 -285 -4 -292 -9 -7 -5 -13 -6 -13 -1 0 5
-232 10 -519 11 -452 1 -520 0 -525 -13z"/>
</g>
</svg>
